<?xml version="1.0" encoding="UTF-8"?>
<svg width="552px" height="172px" viewBox="0 0 552 172" version="1.1" xmlns="http://www.w3.org/2000/svg" xmlns:xlink="http://www.w3.org/1999/xlink">
    <!-- Generator: Sketch 45.2 (43514) - http://www.bohemiancoding.com/sketch -->
    <title>logo-sketch</title>
    <desc>Created with Sketch.</desc>
    <defs></defs>
    <g id="Page-1" stroke="none" stroke-width="1" fill="none" fill-rule="evenodd">
        <g id="Group" fill="#FFFFFF">
            <path d="M124.946,19.7 C124.946,20.029335 124.634003,20.194 124.01,20.194 C123.732665,20.194 123.559334,20.0726679 123.49,19.83 C122.744663,17.3859878 121.678674,15.6570051 120.292,14.643 C118.905326,13.6289949 116.851347,13.122 114.13,13.122 L111.686,13.122 C110.836662,13.122 110.256002,13.2606653 109.944,13.538 C109.631998,13.8153347 109.476,14.3353295 109.476,15.098 L109.476,41.488 C109.476,42.684006 109.627665,43.5289975 109.931,44.023 C110.234335,44.5170025 110.771663,44.9069986 111.543,45.193 C112.314337,45.4790014 113.419326,45.7086658 114.858,45.882 C115.135335,45.9166668 115.274,46.1506645 115.274,46.584 C115.274,47.0693358 115.135335,47.312 114.858,47.312 C113.696661,47.312 112.310008,47.2600005 110.698,47.156 C109.172659,47.0519995 107.898672,47 106.876,47 C105.818661,47 104.518674,47.0519995 102.976,47.156 C101.363992,47.2600005 99.9773391,47.312 98.816,47.312 C98.5386653,47.312 98.4,47.0693358 98.4,46.584 C98.4,46.1506645 98.5386653,45.9166668 98.816,45.882 C100.913344,45.6393321 102.338996,45.249336 103.093,44.712 C103.847004,44.174664 104.224,43.1000081 104.224,41.488 L104.224,15.098 C104.224,14.3353295 104.068002,13.8153347 103.756,13.538 C103.443998,13.2606653 102.854671,13.122 101.988,13.122 L99.96,13.122 C97.5159878,13.122 95.2973433,13.7416605 93.304,14.981 C91.3106567,16.2203395 90.0106697,17.8279901 89.404,19.804 C89.3173329,20.0640013 89.1266681,20.194 88.832,20.194 C88.2426637,20.194 87.948,20.0033352 87.948,19.622 C88.9186715,17.0046536 89.837329,14.0406832 90.704,10.73 C93.0613451,11.2153358 98.4519579,11.458 106.876,11.458 C115.525377,11.458 121.028655,11.2153358 123.386,10.73 C123.628668,12.9833446 124.148663,15.9733147 124.946,19.7 Z M155.712667,46.584 C155.712667,47.0693358 155.574001,47.312 155.296667,47.312 C154.60333,47.312 153.745339,47.2600005 152.722667,47.156 C151.613328,47.0519995 150.642671,47 149.810667,47 C148.943996,47 147.947339,47.0519995 146.820667,47.156 C145.797995,47.2600005 144.940004,47.312 144.246667,47.312 C143.969332,47.312 143.830667,47.0693358 143.830667,46.584 C143.830667,46.1506645 143.969332,45.9166668 144.246667,45.882 C145.442673,45.7433326 146.226998,45.405336 146.599667,44.868 C146.972335,44.330664 147.158667,43.2040086 147.158667,41.488 L147.158667,32.804 C147.158667,29.0599813 145.460017,27.188 142.062667,27.188 C139.913323,27.188 138.058675,28.054658 136.498667,29.788 L136.498667,41.488 C136.498667,43.0480078 136.723998,44.1313303 137.174667,44.738 C137.625336,45.3446697 138.509327,45.7259992 139.826667,45.882 C140.104001,45.9166668 140.242667,46.1506645 140.242667,46.584 C140.242667,47.0693358 140.104001,47.312 139.826667,47.312 C139.115997,47.312 138.188672,47.2600005 137.044667,47.156 C135.761994,47.0519995 134.696004,47 133.846667,47 C132.979996,47 131.992006,47.0519995 130.882667,47.156 C129.894662,47.2600005 129.045337,47.312 128.334667,47.312 C128.057332,47.312 127.918667,47.0693358 127.918667,46.584 C127.918667,46.1506645 128.057332,45.9166668 128.334667,45.882 C129.790674,45.7259992 130.735331,45.3836693 131.168667,44.855 C131.602002,44.3263307 131.818667,43.2040086 131.818667,41.488 L131.818667,17.334 C131.818667,15.929993 131.649668,15.0113355 131.311667,14.578 C130.973665,14.1446645 130.18934,13.8586674 128.958667,13.72 C128.681332,13.6853332 128.542667,13.4686687 128.542667,13.07 C128.542667,12.6193311 128.681332,12.394 128.958667,12.394 C131.922682,11.7006632 134.115326,10.7820057 135.536667,9.638 C135.796668,9.42999896 136.013333,9.326 136.186667,9.326 C136.672003,9.326 136.914667,9.46466528 136.914667,9.742 C136.637332,12.5846809 136.498667,15.6006507 136.498667,18.79 L136.498667,27.604 C138.977346,25.2466549 141.421321,24.068 143.830667,24.068 C146.292012,24.068 148.228993,24.7439932 149.641667,26.096 C151.05434,27.4480068 151.760667,29.2679886 151.760667,31.556 L151.760667,41.488 C151.760667,43.1866752 151.981665,44.3003307 152.423667,44.829 C152.865669,45.3576693 153.823326,45.7086658 155.296667,45.882 C155.574001,45.9166668 155.712667,46.1506645 155.712667,46.584 Z M180.525333,32.544 C180.525333,33.0293358 180.213337,33.272 179.589333,33.272 L165.341333,33.272 C165.237333,34.2080047 165.185333,35.1786616 165.185333,36.184 C165.185333,38.9746806 165.848327,41.1196592 167.174333,42.619 C168.50034,44.1183408 170.385321,44.868 172.829333,44.868 C174.060006,44.868 175.299327,44.53867 176.547333,43.88 C177.79534,43.22133 178.800663,42.3806718 179.563333,41.358 L179.693333,41.306 C179.849334,41.306 180.000999,41.4013324 180.148333,41.592 C180.295668,41.7826676 180.369333,42.0079987 180.369333,42.268 C180.369333,42.6320018 179.814672,43.3903276 178.705333,44.543 C177.595995,45.6956724 176.39134,46.5753303 175.091333,47.182 C173.791327,47.7886697 172.430674,48.092 171.009333,48.092 C167.889318,48.092 165.263344,46.9480114 163.131333,44.66 C160.999323,42.3719886 159.933333,39.5640166 159.933333,36.236 C159.933333,32.8386497 160.977656,29.9613451 163.066333,27.604 C165.155011,25.2466549 167.802651,24.068 171.009333,24.068 C173.696014,24.068 175.953658,24.9476579 177.782333,26.707 C179.611009,28.4663421 180.525333,30.4119893 180.525333,32.544 Z M175.793333,30.256 C175.793333,28.9559935 175.347005,27.8770043 174.454333,27.019 C173.561662,26.1609957 172.413341,25.732 171.009333,25.732 C169.67466,25.732 168.517672,26.2909944 167.538333,27.409 C166.558995,28.5270056 165.896002,29.9959909 165.549333,31.816 L172.777333,31.608 C173.869339,31.5906666 174.644998,31.4866676 175.104333,31.296 C175.563669,31.1053324 175.793333,30.7586692 175.793333,30.256 Z M274.706,11.926 C274.706,12.3593355 274.567335,12.5933332 274.29,12.628 C272.123323,12.8706679 270.637005,13.2693306 269.831,13.824 C269.024996,14.3786694 268.604667,15.4446588 268.57,17.022 L267.998,47.624 C267.998,47.9706684 267.790003,48.144 267.374,48.144 C267.165999,48.144 266.888669,48.0053347 266.542,47.728 L239.736,17.438 L239.372,41.488 C239.354667,41.6266674 239.346,41.7566661 239.346,41.878 C239.346,43.1953399 239.761996,44.1269973 240.594,44.673 C241.426005,45.2190027 242.925323,45.6219987 245.092,45.882 C245.369335,45.9166668 245.508,46.1506645 245.508,46.584 C245.508,47.0693358 245.369335,47.312 245.092,47.312 C244.190663,47.312 242.951342,47.2600005 241.374,47.156 C239.90066,47.0519995 238.765338,47 237.968,47 C237.101329,47 235.931341,47.0519995 234.458,47.156 C233.03666,47.2600005 231.936004,47.312 231.156,47.312 C230.878666,47.312 230.74,47.0693358 230.74,46.584 C230.74,46.1506645 230.895999,45.9166668 231.208,45.882 C233.357345,45.6219987 234.830663,45.2190027 235.628,44.673 C236.425338,44.1269973 236.85,43.0653412 236.902,41.488 L237.812,17.022 L237.812,16.788 C237.812,15.383993 237.404671,14.4046694 236.59,13.85 C235.77533,13.2953306 234.258678,12.8793347 232.04,12.602 C231.797333,12.602 231.676,12.3593358 231.676,11.874 C231.676,11.3886642 231.814666,11.146 232.092,11.146 C232.69867,11.146 233.547995,11.1979995 234.64,11.302 C235.610672,11.4060005 236.338665,11.458 236.824,11.458 C237.43067,11.458 238.158663,11.4060005 239.008,11.302 C239.874671,11.1979995 240.619997,11.146 241.244,11.146 L266.282,39.148 L266.282,17.022 C266.282,15.5486593 265.861671,14.513003 265.021,13.915 C264.18033,13.316997 262.624678,12.8880013 260.354,12.628 C260.076666,12.5933332 259.938,12.3593355 259.938,11.926 C259.938,11.4406642 260.076666,11.198 260.354,11.198 C261.290005,11.198 262.537993,11.2413329 264.098,11.328 C265.554008,11.4146671 266.680663,11.458 267.478,11.458 C268.344671,11.458 269.51466,11.4146671 270.988,11.328 C272.409341,11.2413329 273.509997,11.198 274.29,11.198 C274.567335,11.198 274.706,11.4406642 274.706,11.926 Z M293.070667,47.884 C292.099996,47.884 291.255004,47.645669 290.535667,47.169 C289.81633,46.6923309 289.326669,46.0466707 289.066667,45.232 C287.211991,47.1386762 284.785349,48.092 281.786667,48.092 C280.226659,48.092 278.952672,47.6110048 277.964667,46.649 C276.976662,45.6869952 276.482667,44.4866739 276.482667,43.048 C276.482667,39.4946489 280.694625,36.6173443 289.118667,34.416 L289.274667,30.36 L289.274667,30.23 C289.274667,28.9819938 288.967004,27.9896703 288.351667,27.253 C287.736331,26.5163296 286.917339,26.148 285.894667,26.148 C284.871995,26.148 284.005337,26.3949975 283.294667,26.889 C282.583997,27.3830025 282.220001,28.0026629 282.202667,28.748 C282.185334,29.8573389 281.895003,30.7239969 281.331667,31.348 C280.768331,31.9720031 280.018672,32.284 279.082667,32.284 C278.527998,32.284 278.077336,32.119335 277.730667,31.79 C277.383999,31.460665 277.210667,31.0186694 277.210667,30.464 C277.210667,29.1293267 278.423988,27.729674 280.850667,26.265 C283.277346,24.800326 285.530657,24.068 287.610667,24.068 C289.482677,24.068 290.999328,24.6226611 292.160667,25.732 C293.322006,26.8413389 293.902667,28.3319906 293.902667,30.204 L293.902667,30.516 L293.538667,42.268 L293.538667,42.45 C293.538667,44.2700091 294.127995,45.18 295.306667,45.18 C295.87867,45.18 296.545997,44.8333368 297.308667,44.14 L297.490667,44.088 C297.629335,44.088 297.759333,44.1789991 297.880667,44.361 C298.002001,44.5430009 298.062667,44.737999 298.062667,44.946 C298.062667,45.4486692 297.538339,46.0639964 296.489667,46.792 C295.440995,47.5200036 294.30134,47.884 293.070667,47.884 Z M289.066667,36.184 C284.005309,37.3280057 281.474667,39.2173202 281.474667,41.852 C281.474667,44.3133456 282.427991,45.544 284.334667,45.544 C285.253338,45.544 286.158996,45.3143356 287.051667,44.855 C287.944338,44.3956644 288.546666,43.8280034 288.858667,43.152 L289.066667,36.184 Z M317.805334,26.616 C317.805334,27.5520047 317.580003,28.02 317.129334,28.02 L309.381334,27.812 L309.381334,40.292 C309.381334,43.550683 310.542656,45.18 312.865334,45.18 C314.304008,45.18 315.612661,44.8420034 316.791334,44.166 C316.930001,44.166 317.055667,44.2569991 317.168334,44.439 C317.281001,44.6210009 317.337334,44.815999 317.337334,45.024 C317.337334,45.4573355 316.691674,46.0423296 315.400334,46.779 C314.108994,47.5156704 312.657342,47.884 311.045334,47.884 C309.069324,47.884 307.492007,47.2816727 306.313334,46.077 C305.134661,44.8723273 304.545334,43.2820099 304.545334,41.306 L304.545334,41.072 L304.649334,28.436 C304.649334,27.9506642 304.441336,27.708 304.025334,27.708 L302.049334,27.708 C301.667999,27.708 301.477334,27.4826689 301.477334,27.032 C301.477334,26.6853316 301.633332,26.4253342 301.945334,26.252 C304.354679,24.8306596 306.451992,22.8286796 308.237334,20.246 C308.428002,19.9686653 308.670666,19.83 308.965334,19.83 C309.45067,19.83 309.693334,19.9686653 309.693334,20.246 L309.485334,25.212 L317.129334,25.212 C317.580003,25.212 317.805334,25.6799953 317.805334,26.616 Z M347.818001,45.596 C347.818001,45.9600018 347.679335,46.1593332 347.402001,46.194 C344.247318,46.5406684 342.08934,47.147329 340.928001,48.014 C340.685333,48.2046676 340.442669,48.3 340.200001,48.3 C339.853332,48.3 339.680001,48.1613347 339.680001,47.884 L339.888001,44.608 C337.322655,46.9306783 335.000011,48.092 332.920001,48.092 C330.545322,48.092 328.695007,47.42034 327.369001,46.077 C326.042994,44.7336599 325.380001,42.9093449 325.380001,40.604 L325.380001,30.88 C325.380001,29.3373256 325.180669,28.3146692 324.782001,27.812 C324.383332,27.3093308 323.594673,27.058 322.416001,27.058 C322.190666,27.058 321.939335,27.0666666 321.662001,27.084 C321.401999,27.084 321.272001,26.8586689 321.272001,26.408 C321.272001,25.8533306 321.410666,25.576 321.688001,25.576 C323.698677,25.576 326.333318,25.1860039 329.592001,24.406 C329.904002,24.406 330.060001,24.6226645 330.060001,25.056 L330.060001,39.356 C330.060001,41.3146765 330.432664,42.7403289 331.178001,43.633 C331.923338,44.5256711 333.093326,44.972 334.688001,44.972 C335.710672,44.972 336.611997,44.7813352 337.392001,44.4 C338.172005,44.0186648 339.003996,43.3426715 339.888001,42.372 L339.888001,30.88 C339.888001,29.354659 339.684336,28.3363359 339.277001,27.825 C338.869665,27.3136641 338.05934,27.058 336.846001,27.058 C336.638,27.058 336.395335,27.0666666 336.118001,27.084 C335.857999,27.084 335.728001,26.8586689 335.728001,26.408 C335.728001,25.8533306 335.866666,25.576 336.144001,25.576 C338.154677,25.576 340.789318,25.1860039 344.048001,24.406 C344.360002,24.406 344.516001,24.6226645 344.516001,25.056 L344.516001,41.644 C344.516001,42.840006 344.684999,43.6416646 345.023001,44.049 C345.361002,44.4563354 346.153994,44.7466658 347.402001,44.92 C347.679335,44.92 347.818001,45.1453311 347.818001,45.596 Z M369.926667,26.668 C369.926667,27.3613368 369.714336,27.9506642 369.289667,28.436 C368.864999,28.9213358 368.349337,29.164 367.742667,29.164 C366.979997,29.164 366.226005,28.9126692 365.480667,28.41 C364.891331,28.0113313 364.380003,27.812 363.946667,27.812 C362.819995,27.812 361.658673,28.4706601 360.462667,29.788 L360.462667,41.488 C360.462667,42.9960075 360.722665,44.048997 361.242667,44.647 C361.76267,45.245003 362.871992,45.6566655 364.570667,45.882 C364.848002,45.9166668 364.986667,46.1506645 364.986667,46.584 C364.986667,47.0693358 364.848002,47.312 364.570667,47.312 C363.859997,47.312 362.854674,47.2600005 361.554667,47.156 C360.115994,47.0519995 358.972005,47 358.122667,47 C357.255996,47 356.20734,47.0519995 354.976667,47.156 C353.867329,47.2600005 352.957338,47.312 352.246667,47.312 C351.969333,47.312 351.830667,47.0693358 351.830667,46.584 C351.830667,46.1506645 351.969333,45.9166668 352.246667,45.882 C353.754675,45.6913324 354.720999,45.3360026 355.145667,44.816 C355.570336,44.2959974 355.782667,43.1866752 355.782667,41.488 L355.782667,31.868 C355.782667,30.4813264 355.605003,29.5713355 355.249667,29.138 C354.894332,28.7046645 354.10134,28.4186674 352.870667,28.28 C352.593333,28.28 352.454667,28.0546689 352.454667,27.604 C352.454667,27.1879979 352.593333,26.98 352.870667,26.98 C354.586676,26.5466645 356.003662,26.0656693 357.121667,25.537 C358.239673,25.0083307 358.971999,24.5533352 359.318667,24.172 C359.526669,23.963999 359.734666,23.86 359.942667,23.86 C360.428003,23.86 360.670667,23.9986653 360.670667,24.276 L360.462667,27.552 C361.849341,26.2693269 363.040996,25.3680026 364.037667,24.848 C365.034339,24.3279974 366.026663,24.068 367.014667,24.068 C367.812005,24.068 368.496665,24.3279974 369.068667,24.848 C369.64067,25.3680026 369.926667,25.9746632 369.926667,26.668 Z M394.505334,32.544 C394.505334,33.0293358 394.193337,33.272 393.569334,33.272 L379.321334,33.272 C379.217334,34.2080047 379.165334,35.1786616 379.165334,36.184 C379.165334,38.9746806 379.828328,41.1196592 381.154334,42.619 C382.480341,44.1183408 384.365322,44.868 386.809334,44.868 C388.040007,44.868 389.279328,44.53867 390.527334,43.88 C391.77534,43.22133 392.780664,42.3806718 393.543334,41.358 L393.673334,41.306 C393.829335,41.306 393.981,41.4013324 394.128334,41.592 C394.275668,41.7826676 394.349334,42.0079987 394.349334,42.268 C394.349334,42.6320018 393.794673,43.3903276 392.685334,44.543 C391.575995,45.6956724 390.371341,46.5753303 389.071334,47.182 C387.771328,47.7886697 386.410675,48.092 384.989334,48.092 C381.869319,48.092 379.243345,46.9480114 377.111334,44.66 C374.979324,42.3719886 373.913334,39.5640166 373.913334,36.236 C373.913334,32.8386497 374.957657,29.9613451 377.046334,27.604 C379.135011,25.2466549 381.782652,24.068 384.989334,24.068 C387.676014,24.068 389.933658,24.9476579 391.762334,26.707 C393.59101,28.4663421 394.505334,30.4119893 394.505334,32.544 Z M389.773334,30.256 C389.773334,28.9559935 389.327005,27.8770043 388.434334,27.019 C387.541663,26.1609957 386.393341,25.732 384.989334,25.732 C383.654661,25.732 382.497672,26.2909944 381.518334,27.409 C380.538996,28.5270056 379.876003,29.9959909 379.529334,31.816 L386.757334,31.608 C387.84934,31.5906666 388.624999,31.4866676 389.084334,31.296 C389.54367,31.1053324 389.773334,30.7586692 389.773334,30.256 Z M439.788668,36.236 C439.788668,39.6853506 438.666346,42.5236555 436.421668,44.751 C434.17699,46.9783445 431.269352,48.092 427.698668,48.092 C424.127983,48.092 421.216012,46.9740112 418.962668,44.738 C416.709323,42.5019888 415.582668,39.6680172 415.582668,36.236 C415.582668,32.7519826 416.71799,29.8530116 418.988668,27.539 C421.259346,25.2249884 424.16265,24.068 427.698668,24.068 C431.252019,24.068 434.155323,25.2206551 436.408668,27.526 C438.662012,29.8313449 439.788668,32.7346492 439.788668,36.236 Z M434.562668,36.184 C434.562668,33.0119841 433.951674,30.4770095 432.729668,28.579 C431.507662,26.6809905 429.830678,25.732 427.698668,25.732 C425.58399,25.732 423.911341,26.6853238 422.680668,28.592 C421.449995,30.4986762 420.834668,33.0293176 420.834668,36.184 C420.834668,39.321349 421.441328,41.8129908 422.654668,43.659 C423.868007,45.5050092 425.549324,46.428 427.698668,46.428 C429.848012,46.428 431.529328,45.5136758 432.742668,43.685 C433.956007,41.8563242 434.562668,39.3560159 434.562668,36.184 Z M466.239334,11.978 C466.239334,12.6886702 465.97067,13.2476646 465.433334,13.655 C464.895998,14.0623354 464.159339,14.266 463.223334,14.266 C462.39133,14.266 461.550672,13.9453365 460.701334,13.304 C459.990664,12.766664 459.358004,12.498 458.803334,12.498 C457.624662,12.498 456.619339,13.1523268 455.787334,14.461 C454.95533,15.7696732 454.539334,17.5419888 454.539334,19.778 L454.539334,25.836 L460.363334,25.836 C460.779337,25.836 460.987334,26.3039953 460.987334,27.24 C460.987334,28.1760047 460.779337,28.644 460.363334,28.644 L454.487334,28.436 L454.487334,41.488 C454.487334,43.1866752 454.695332,44.2959974 455.111334,44.816 C455.527337,45.3360026 456.48066,45.6913324 457.971334,45.882 C458.248669,45.9166668 458.387334,46.1506645 458.387334,46.584 C458.387334,47.0693358 458.248669,47.312 457.971334,47.312 C457.260664,47.312 456.35934,47.2600005 455.267334,47.156 C454.036662,47.0519995 452.996672,47 452.147334,47 C451.280663,47 450.240674,47.0519995 449.027334,47.156 C447.935329,47.2600005 447.034005,47.312 446.323334,47.312 C446.046,47.312 445.907334,47.0693358 445.907334,46.584 C445.907334,46.1506645 446.046,45.9166668 446.323334,45.882 C447.796675,45.6913324 448.745666,45.3360026 449.170334,44.816 C449.595003,44.2959974 449.807334,43.1866752 449.807334,41.488 L449.807334,29.06 C449.807334,28.5746642 449.599337,28.332 449.183334,28.332 L446.531334,28.332 C446.184666,28.332 446.011334,28.1066689 446.011334,27.656 C446.011334,27.2053311 446.167333,26.9453337 446.479334,26.876 C448.698012,26.3733308 449.807334,25.8880023 449.807334,25.42 C449.807334,21.2253124 451.085655,17.529016 453.642334,14.331 C456.199014,11.132984 459.149984,9.534 462.495334,9.534 C463.656674,9.534 464.570998,9.7506645 465.238334,10.184 C465.905671,10.6173355 466.239334,11.2153295 466.239334,11.978 Z" id="The-Nature-of"></path>
            <path d="M67.752,128.92 C67.752,138.472048 64.9200283,146.067972 59.256,151.708 C53.5919717,157.348028 45.9360482,160.168 36.288,160.168 C32.0159786,160.168 26.9040298,159.400008 20.952,157.864 C15.5279729,156.423993 11.0880173,155.704 7.632,155.704 C7.34399856,147.543959 6.76800432,139.384041 5.904,131.224 C5.904,130.455996 6.6239928,130.072 8.064,130.072 C9.07200504,130.072 9.6959988,130.455996 9.936,131.224 C12.528013,140.152045 15.8399798,146.439982 19.872,150.088 C23.9040202,153.736018 29.5679635,155.56 36.864,155.56 C42.672029,155.56 47.171984,153.880017 50.364,150.52 C53.556016,147.159983 55.152,142.45603 55.152,136.408 C55.152,132.519981 53.7600139,128.908017 50.976,125.572 C48.1919861,122.235983 42.2640454,117.928026 33.192,112.648 C22.7759479,106.64797 15.9600161,101.560021 12.744,97.384 C9.52798392,93.2079791 7.92,88.5760254 7.92,83.488 C7.92,75.6639609 10.8119711,69.052027 16.596,63.652 C22.3800289,58.251973 29.7119556,55.552 38.592,55.552 C41.9520168,55.552 45.8159782,56.0079954 50.184,56.92 C54.2640204,57.7360041 57.7919851,58.144 60.768,58.144 C61.3440029,66.5920422 62.1119952,74.0319678 63.072,80.464 C63.072,81.2320038 62.4480062,81.616 61.2,81.616 C59.8559933,81.616 59.1120007,81.2320038 58.968,80.464 C57.3839921,73.263964 54.9840161,68.0800158 51.768,64.912 C48.5519839,61.7439842 44.1120283,60.16 38.448,60.16 C33.0719731,60.16 28.8000158,61.7439842 25.632,64.912 C22.4639842,68.0800158 20.88,72.3519731 20.88,77.728 C20.88,81.136017 22.2119867,84.3879845 24.876,87.484 C27.5400133,90.5800155 33.3119556,94.7199741 42.192,99.904 C52.7040526,106.048031 59.5919837,111.183979 62.856,115.312 C66.1200163,119.440021 67.752,123.975975 67.752,128.92 Z M147.08,127.192 C147.08,136.744048 143.972031,144.603969 137.756,150.772 C131.539969,156.940031 123.488049,160.024 113.6,160.024 C103.711951,160.024 95.6480312,156.928031 89.408,150.736 C83.1679688,144.543969 80.048,136.696048 80.048,127.192 C80.048,117.543952 83.1919686,109.516032 89.48,103.108 C95.7680314,96.699968 103.807951,93.496 113.6,93.496 C123.440049,93.496 131.479969,96.6879681 137.72,103.072 C143.960031,109.456032 147.08,117.495952 147.08,127.192 Z M132.608,127.048 C132.608,118.263956 130.916017,111.244026 127.532,105.988 C124.147983,100.731974 119.50403,98.104 113.6,98.104 C107.743971,98.104 103.112017,100.743974 99.704,106.024 C96.295983,111.304026 94.592,118.311956 94.592,127.048 C94.592,135.736043 96.2719832,142.635974 99.632,147.748 C102.992017,152.860026 107.64797,155.416 113.6,155.416 C119.55203,155.416 124.207983,152.884025 127.568,147.82 C130.928017,142.755975 132.608,135.832044 132.608,127.048 Z M216.328,60.016 C216.328,61.9840098 215.584007,63.5319944 214.096,64.66 C212.607993,65.7880056 210.568013,66.352 207.976,66.352 C205.671988,66.352 203.344012,65.4640089 200.992,63.688 C199.02399,62.1999926 197.272008,61.456 195.736,61.456 C192.471984,61.456 189.688012,63.2679819 187.384,66.892 C185.079988,70.5160181 183.928,75.423969 183.928,81.616 L183.928,98.392 L200.056,98.392 C201.208006,98.392 201.784,99.687987 201.784,102.28 C201.784,104.872013 201.208006,106.168 200.056,106.168 L183.784,105.592 L183.784,141.736 C183.784,146.440024 184.359994,149.511993 185.512,150.952 C186.664006,152.392007 189.303979,153.375997 193.432,153.904 C194.200004,154 194.584,154.647994 194.584,155.848 C194.584,157.192007 194.200004,157.864 193.432,157.864 C191.46399,157.864 188.968015,157.720001 185.944,157.432 C182.535983,157.143999 179.656012,157 177.304,157 C174.903988,157 172.024017,157.143999 168.664,157.432 C165.639985,157.720001 163.14401,157.864 161.176,157.864 C160.407996,157.864 160.024,157.192007 160.024,155.848 C160.024,154.647994 160.407996,154 161.176,153.904 C165.25602,153.375997 167.883994,152.392007 169.06,150.952 C170.236006,149.511993 170.824,146.440024 170.824,141.736 L170.824,107.32 C170.824,105.975993 170.248006,105.304 169.096,105.304 L161.752,105.304 C160.791995,105.304 160.312,104.680006 160.312,103.432 C160.312,102.183994 160.743996,101.464001 161.608,101.272 C167.752031,99.879993 170.824,98.5360065 170.824,97.24 C170.824,85.6239419 174.363965,75.3880443 181.444,66.532 C188.524035,57.6759557 196.695954,53.248 205.96,53.248 C209.176016,53.248 211.707991,53.847994 213.556,55.048 C215.404009,56.248006 216.328,57.9039894 216.328,60.016 Z M254.112,100.552 C254.112,103.144013 253.488006,104.44 252.24,104.44 L230.784,103.864 L230.784,138.424 C230.784,147.448045 233.999968,151.96 240.432,151.96 C244.41602,151.96 248.039984,151.024009 251.304,149.152 C251.688002,149.152 252.035998,149.403997 252.348,149.908 C252.660002,150.412003 252.816,150.951997 252.816,151.528 C252.816,152.728006 251.028018,154.34799 247.452,156.388 C243.875982,158.42801 239.856022,159.448 235.392,159.448 C229.919973,159.448 225.552016,157.780017 222.288,154.444 C219.023984,151.107983 217.392,146.704027 217.392,141.232 L217.392,140.584 L217.68,105.592 C217.68,104.247993 217.104006,103.576 215.952,103.576 L210.48,103.576 C209.423995,103.576 208.896,102.952006 208.896,101.704 C208.896,100.743995 209.327996,100.024002 210.192,99.544 C216.864033,95.6079803 222.671975,90.0640358 227.616,82.912 C228.144003,82.1439962 228.815996,81.76 229.632,81.76 C230.976007,81.76 231.648,82.1439962 231.648,82.912 L231.072,96.664 L252.24,96.664 C253.488006,96.664 254.112,97.959987 254.112,100.552 Z M363.752,97.816 C363.752,99.016006 363.368004,99.6639995 362.6,99.76 C358.66398,100.336003 355.964007,101.367993 354.5,102.856 C353.035993,104.344007 351.29601,107.367977 349.28,111.928 L328.616,159.016 C328.183998,159.784004 327.560004,160.168 326.744,160.168 C325.975996,160.168 325.448001,159.784004 325.16,159.016 L310.4,121.288 L293.552,159.016 C293.071998,159.784004 292.448004,160.168 291.68,160.168 C290.815996,160.168 290.216002,159.784004 289.88,159.016 L270.512,111.928 C268.831992,107.799979 267.00801,104.836009 265.04,103.036 C263.07199,101.235991 260.432017,100.168002 257.12,99.832 C256.351996,99.7359995 255.968,99.0640062 255.968,97.816 C255.968,96.4719933 256.351996,95.8 257.12,95.8 C259.08801,95.8 261.511986,95.9439986 264.392,96.232 C267.608016,96.5200014 270.415988,96.664 272.816,96.664 C275.168012,96.664 277.927984,96.5200014 281.096,96.232 C283.976014,95.9439986 286.39999,95.8 288.368,95.8 C289.136004,95.8 289.52,96.4719933 289.52,97.816 C289.52,99.0640062 289.136004,99.7359995 288.368,99.832 C285.967988,100.120001 284.288005,100.611997 283.328,101.308 C282.367995,102.004003 281.888,103.095993 281.888,104.584 C281.888,106.072007 282.559993,108.543983 283.904,112 L295.568,141.592 L307.808,113.944 L306.8,110.2 C306.559999,109.671997 306.272002,108.928005 305.936,107.968 C304.735994,104.751984 303.704004,102.652005 302.84,101.668 C301.975996,100.683995 300.416011,100.072001 298.16,99.832 C297.391996,99.7359995 297.008,99.0640062 297.008,97.816 C297.008,96.4719933 297.391996,95.8 298.16,95.8 C299.888009,95.8 301.975988,95.9439986 304.424,96.232 C307.064013,96.5200014 309.39199,96.664 311.408,96.664 C313.760012,96.664 316.519984,96.5200014 319.688,96.232 C322.616015,95.9439986 325.06399,95.8 327.032,95.8 C327.800004,95.8 328.184,96.4719933 328.184,97.816 C328.184,99.016006 327.800004,99.6639995 327.032,99.76 C321.991975,100.432003 319.472,102.855979 319.472,107.032 C319.472,108.95201 319.735997,110.583993 320.264,111.928 L331.064,140.584 L342.584,113.512 C343.928007,110.343984 344.6,107.704011 344.6,105.592 C344.6,102.279983 342.464021,100.336003 338.192,99.76 C337.375996,99.6639995 336.968,99.016006 336.968,97.816 C336.968,96.4719933 337.351996,95.8 338.12,95.8 C340.18401,95.8 342.439988,95.9439986 344.888,96.232 C347.240012,96.5200014 349.351991,96.664 351.224,96.664 C352.232005,96.664 353.74399,96.5440012 355.76,96.304 C358.496014,95.9679983 360.775991,95.8 362.6,95.8 C363.368004,95.8 363.752,96.4719933 363.752,97.816 Z M413.632,159.448 C410.943987,159.448 408.60401,158.788007 406.612,157.468 C404.61999,156.147993 403.264004,154.360011 402.544,152.104 C397.407974,157.384026 390.688042,160.024 382.384,160.024 C378.063978,160.024 374.536014,158.692013 371.8,156.028 C369.063986,153.363987 367.696,150.04002 367.696,146.056 C367.696,136.215951 379.359883,128.24803 402.688,122.152 L403.12,110.92 L403.12,110.56 C403.12,107.103983 402.268009,104.35601 400.564,102.316 C398.859991,100.27599 396.592014,99.256 393.76,99.256 C390.927986,99.256 388.52801,99.9399932 386.56,101.308 C384.59199,102.676007 383.584,104.39199 383.536,106.456 C383.488,109.528015 382.684008,111.927991 381.124,113.656 C379.563992,115.384009 377.488013,116.248 374.896,116.248 C373.359992,116.248 372.112005,115.792005 371.152,114.88 C370.191995,113.967995 369.712,112.744008 369.712,111.208 C369.712,107.511982 373.071966,103.63602 379.792,99.58 C386.512034,95.5239797 392.751971,93.496 398.512,93.496 C403.696026,93.496 407.895984,95.0319846 411.112,98.104 C414.328016,101.176015 415.936,105.303974 415.936,110.488 L415.936,111.352 L414.928,143.896 L414.928,144.4 C414.928,149.440025 416.559984,151.96 419.824,151.96 C421.408008,151.96 423.255989,151.00001 425.368,149.08 L425.872,148.936 C426.256002,148.936 426.615998,149.187997 426.952,149.692 C427.288002,150.196003 427.456,150.735997 427.456,151.312 C427.456,152.704007 426.004015,154.40799 423.1,156.424 C420.195985,158.44001 417.040017,159.448 413.632,159.448 Z M402.544,127.048 C388.52793,130.216016 381.52,135.447964 381.52,142.744 C381.52,149.560034 384.159974,152.968 389.44,152.968 C391.984013,152.968 394.491988,152.332006 396.964,151.06 C399.436012,149.787994 401.103996,148.216009 401.968,146.344 L402.544,127.048 Z M482.016,100.696 C482.016,102.61601 481.428006,104.247993 480.252,105.592 C479.075994,106.936007 477.648008,107.608 475.968,107.608 C473.855989,107.608 471.76801,106.912007 469.704,105.52 C468.071992,104.415994 466.656006,103.864 465.456,103.864 C462.335984,103.864 459.120017,105.687982 455.808,109.336 L455.808,141.736 C455.808,145.912021 456.527993,148.827992 457.968,150.484 C459.408007,152.140008 462.479976,153.279997 467.184,153.904 C467.952004,154 468.336,154.647994 468.336,155.848 C468.336,157.192007 467.952004,157.864 467.184,157.864 C465.21599,157.864 462.432018,157.720001 458.832,157.432 C454.84798,157.143999 451.680012,157 449.328,157 C446.927988,157 444.024017,157.143999 440.616,157.432 C437.543985,157.720001 435.02401,157.864 433.056,157.864 C432.287996,157.864 431.904,157.192007 431.904,155.848 C431.904,154.647994 432.287996,154 433.056,153.904 C437.232021,153.375997 439.907994,152.392007 441.084,150.952 C442.260006,149.511993 442.848,146.440024 442.848,141.736 L442.848,115.096 C442.848,111.255981 442.356005,108.736006 441.372,107.536 C440.387995,106.335994 438.192017,105.544002 434.784,105.16 C434.015996,105.16 433.632,104.536006 433.632,103.288 C433.632,102.135994 434.015996,101.56 434.784,101.56 C439.536024,100.359994 443.459985,99.0280073 446.556,97.564 C449.652015,96.0999927 451.679995,94.8400053 452.64,93.784 C453.216003,93.2079971 453.791997,92.92 454.368,92.92 C455.712007,92.92 456.384,93.3039962 456.384,94.072 L455.808,103.144 C459.648019,99.5919822 462.947986,97.0960072 465.708,95.656 C468.468014,94.2159928 471.215986,93.496 473.952,93.496 C476.160011,93.496 478.055992,94.2159928 479.64,95.656 C481.224008,97.0960072 482.016,98.7759904 482.016,100.696 Z M546.08,116.968 C546.08,118.312007 545.216009,118.984 543.488,118.984 L504.032,118.984 C503.743999,121.576013 503.6,124.263986 503.6,127.048 C503.6,134.776039 505.435982,140.715979 509.108,144.868 C512.780018,149.020021 517.999966,151.096 524.768,151.096 C528.176017,151.096 531.607983,150.184009 535.064,148.36 C538.520017,146.535991 541.303989,144.208014 543.416,141.376 L543.776,141.232 C544.208002,141.232 544.627998,141.495997 545.036,142.024 C545.444002,142.552003 545.648,143.175996 545.648,143.896 C545.648,144.904005 544.112015,147.003984 541.04,150.196 C537.967985,153.388016 534.632018,155.823992 531.032,157.504 C527.431982,159.184008 523.66402,160.024 519.728,160.024 C511.087957,160.024 503.81603,156.856032 497.912,150.52 C492.00797,144.183968 489.056,136.408046 489.056,127.192 C489.056,117.783953 491.947971,109.816033 497.732,103.288 C503.516029,96.7599674 510.847956,93.496 519.728,93.496 C527.168037,93.496 533.419975,95.9319756 538.484,100.804 C543.548025,105.676024 546.08,111.06397 546.08,116.968 Z M532.976,110.632 C532.976,107.031982 531.740012,104.044012 529.268,101.668 C526.795988,99.2919881 523.616019,98.104 519.728,98.104 C516.031982,98.104 512.828014,99.6519845 510.116,102.748 C507.403986,105.844015 505.568005,109.911975 504.608,114.952 L524.624,114.376 C527.648015,114.328 529.795994,114.040003 531.068,113.512 C532.340006,112.983997 532.976,112.024007 532.976,110.632 Z" id="Software"></path>
        </g>
    </g>
</svg>